<svg width="16" height="17" viewBox="0 0 16 17" fill="none" xmlns="http://www.w3.org/2000/svg">
<path fill-rule="evenodd" clip-rule="evenodd" d="M5.00001 1.33331C5.3682 1.33331 5.66668 1.63179 5.66668 1.99998V2.33332L10.3333 2.33333V1.99998C10.3333 1.63179 10.6318 1.33331 11 1.33331C11.3682 1.33331 11.6667 1.63179 11.6667 1.99998V2.33333L12.5 2.33333C13.9728 2.33334 15.1667 3.52724 15.1667 5V13C15.1667 14.4727 13.9728 15.6666 12.5 15.6666L3.50001 15.6666C2.02725 15.6666 0.833343 14.4727 0.833344 13L0.833344 6.50011L0.833344 4.99998C0.833344 3.52722 2.02725 2.33331 3.50002 2.33332L4.33334 2.33332V1.99998C4.33334 1.63179 4.63182 1.33331 5.00001 1.33331ZM4.33334 3.66665L3.50001 3.66665C2.76363 3.66665 2.16668 4.2636 2.16668 4.99998V5.83331H13.8333V5C13.8333 4.26362 13.2364 3.66667 12.5 3.66667L11.6667 3.66667V3.99998C11.6667 4.36817 11.3682 4.66665 11 4.66665C10.6318 4.66665 10.3333 4.36817 10.3333 3.99998V3.66666L5.66668 3.66665V3.99998C5.66668 4.36817 5.3682 4.66665 5.00001 4.66665C4.63182 4.66665 4.33334 4.36817 4.33334 3.99998V3.66665ZM13.8333 7.16665H2.16668L2.16668 13C2.16668 13.7364 2.76363 14.3333 3.50001 14.3333L12.5 14.3333C13.2364 14.3333 13.8333 13.7364 13.8333 13V7.16665Z" fill="#787A80"/>
</svg>
