<svg width="18" height="18" viewBox="0 0 18 18" fill="none" xmlns="http://www.w3.org/2000/svg">
<path fill-rule="evenodd" clip-rule="evenodd" d="M9.00013 1.70829C7.3893 1.70829 6.08347 3.01413 6.08347 4.62496C6.08347 6.23579 7.3893 7.54163 9.00013 7.54163C10.611 7.54163 11.9168 6.23579 11.9168 4.62496C11.9168 3.01413 10.611 1.70829 9.00013 1.70829ZM4.4168 4.62496C4.4168 2.09365 6.46883 0.041626 9.00013 0.041626C11.5314 0.041626 13.5835 2.09365 13.5835 4.62496C13.5835 7.15626 11.5314 9.20829 9.00013 9.20829C6.46883 9.20829 4.4168 7.15626 4.4168 4.62496Z" fill="#424551"/>
<path fill-rule="evenodd" clip-rule="evenodd" d="M4.08685 11.7083C3.50908 11.7083 3.05749 11.9896 2.87418 12.3938C2.62047 12.9532 2.39072 13.6193 2.3365 14.2509C2.31226 14.5333 2.43 14.7414 2.59224 14.8422C3.44987 15.375 5.43713 16.2916 9.00013 16.2916C12.5631 16.2916 14.5504 15.375 15.408 14.8422C15.5703 14.7414 15.688 14.5333 15.6638 14.2509C15.6096 13.6193 15.3798 12.9532 15.1261 12.3938C14.9428 11.9896 14.4912 11.7083 13.9134 11.7083H4.08685ZM1.35632 11.7054C1.86294 10.5884 2.99422 10.0416 4.08685 10.0416H13.9134C15.006 10.0416 16.1373 10.5884 16.6439 11.7054C16.9349 12.347 17.2472 13.2096 17.3243 14.1084C17.3946 14.9269 17.0544 15.7815 16.2875 16.2579C15.1596 16.9586 12.8665 17.9583 9.00013 17.9583C5.1338 17.9583 2.84072 16.9586 1.71277 16.2579C0.945886 15.7815 0.605686 14.9269 0.67594 14.1084C0.753088 13.2096 1.06534 12.347 1.35632 11.7054Z" fill="#424551"/>
</svg>
