<svg width="16" height="17" viewBox="0 0 16 17" fill="none" xmlns="http://www.w3.org/2000/svg">
<path d="M8.66666 4.83335C8.66666 4.46516 8.36818 4.16669 7.99999 4.16669C7.6318 4.16669 7.33332 4.46516 7.33332 4.83335V8.50002C7.33332 8.67683 7.40356 8.8464 7.52858 8.97142L9.52858 10.9714C9.78893 11.2318 10.211 11.2318 10.4714 10.9714C10.7317 10.7111 10.7317 10.289 10.4714 10.0286L8.66666 8.22388V4.83335Z" fill="#787A80"/>
<path fill-rule="evenodd" clip-rule="evenodd" d="M7.99999 1.16669C3.9499 1.16669 0.666656 4.44993 0.666656 8.50002C0.666656 12.5501 3.9499 15.8334 7.99999 15.8334C12.0501 15.8334 15.3333 12.5501 15.3333 8.50002C15.3333 4.44993 12.0501 1.16669 7.99999 1.16669ZM1.99999 8.50002C1.99999 5.18631 4.68628 2.50002 7.99999 2.50002C11.3137 2.50002 14 5.18631 14 8.50002C14 11.8137 11.3137 14.5 7.99999 14.5C4.68628 14.5 1.99999 11.8137 1.99999 8.50002Z" fill="#787A80"/>
</svg>
